<svg id="visual" viewBox="0 0 900 600" width="900" height="600" xmlns="http://www.w3.org/2000/svg" xmlns:xlink="http://www.w3.org/1999/xlink" version="1.1"><path d="M0 73L13.7 70C27.3 67 54.7 61 82 69C109.3 77 136.7 99 163.8 107C191 115 218 109 245.2 100C272.3 91 299.7 79 327 73C354.3 67 381.7 67 409 71C436.3 75 463.7 83 491 84C518.3 85 545.7 79 573 76C600.3 73 627.7 73 654.8 74C682 75 709 77 736.2 88C763.3 99 790.7 119 818 128C845.3 137 872.7 135 886.3 134L900 133L900 0L886.3 0C872.7 0 845.3 0 818 0C790.7 0 763.3 0 736.2 0C709 0 682 0 654.8 0C627.7 0 600.3 0 573 0C545.7 0 518.3 0 491 0C463.7 0 436.3 0 409 0C381.7 0 354.3 0 327 0C299.7 0 272.3 0 245.2 0C218 0 191 0 163.8 0C136.7 0 109.3 0 82 0C54.7 0 27.3 0 13.7 0L0 0Z" fill="#708bff"></path><path d="M0 121L13.7 130C27.3 139 54.7 157 82 168C109.3 179 136.7 183 163.8 181C191 179 218 171 245.2 160C272.3 149 299.7 135 327 133C354.3 131 381.7 141 409 155C436.3 169 463.7 187 491 185C518.3 183 545.7 161 573 152C600.3 143 627.7 147 654.8 156C682 165 709 179 736.2 192C763.3 205 790.7 217 818 214C845.3 211 872.7 193 886.3 184L900 175L900 131L886.3 132C872.7 133 845.3 135 818 126C790.7 117 763.3 97 736.2 86C709 75 682 73 654.8 72C627.7 71 600.3 71 573 74C545.7 77 518.3 83 491 82C463.7 81 436.3 73 409 69C381.7 65 354.3 65 327 71C299.7 77 272.3 89 245.2 98C218 107 191 113 163.8 105C136.7 97 109.3 75 82 67C54.7 59 27.3 65 13.7 68L0 71Z" fill="#4f70ff"></path><path d="M0 217L13.7 240C27.3 263 54.7 309 82 329C109.3 349 136.7 343 163.8 355C191 367 218 397 245.2 382C272.3 367 299.7 307 327 277C354.3 247 381.7 247 409 255C436.3 263 463.7 279 491 288C518.3 297 545.7 299 573 304C600.3 309 627.7 317 654.8 313C682 309 709 293 736.2 290C763.3 287 790.7 297 818 306C845.3 315 872.7 323 886.3 327L900 331L900 173L886.3 182C872.7 191 845.3 209 818 212C790.7 215 763.3 203 736.2 190C709 177 682 163 654.8 154C627.7 145 600.3 141 573 150C545.7 159 518.3 181 491 183C463.7 185 436.3 167 409 153C381.7 139 354.3 129 327 131C299.7 133 272.3 147 245.2 158C218 169 191 177 163.8 179C136.7 181 109.3 177 82 166C54.7 155 27.3 137 13.7 128L0 119Z" fill="#2554ff"></path><path d="M0 319L13.7 332C27.3 345 54.7 371 82 381C109.3 391 136.7 385 163.8 398C191 411 218 443 245.2 428C272.3 413 299.7 351 327 326C354.3 301 381.7 313 409 324C436.3 335 463.7 345 491 358C518.3 371 545.7 387 573 397C600.3 407 627.7 411 654.8 406C682 401 709 387 736.2 382C763.3 377 790.7 381 818 391C845.3 401 872.7 417 886.3 425L900 433L900 329L886.3 325C872.7 321 845.3 313 818 304C790.7 295 763.3 285 736.2 288C709 291 682 307 654.8 311C627.7 315 600.3 307 573 302C545.7 297 518.3 295 491 286C463.7 277 436.3 261 409 253C381.7 245 354.3 245 327 275C299.7 305 272.3 365 245.2 380C218 395 191 365 163.8 353C136.7 341 109.3 347 82 327C54.7 307 27.3 261 13.7 238L0 215Z" fill="#1d48de"></path><path d="M0 601L13.7 601C27.3 601 54.7 601 82 601C109.3 601 136.7 601 163.8 601C191 601 218 601 245.2 601C272.3 601 299.7 601 327 601C354.3 601 381.7 601 409 601C436.3 601 463.7 601 491 601C518.3 601 545.7 601 573 601C600.3 601 627.7 601 654.8 601C682 601 709 601 736.2 601C763.3 601 790.7 601 818 601C845.3 601 872.7 601 886.3 601L900 601L900 431L886.3 423C872.7 415 845.3 399 818 389C790.7 379 763.3 375 736.2 380C709 385 682 399 654.8 404C627.7 409 600.3 405 573 395C545.7 385 518.3 369 491 356C463.7 343 436.3 333 409 322C381.7 311 354.3 299 327 324C299.7 349 272.3 411 245.2 426C218 441 191 409 163.8 396C136.7 383 109.3 389 82 379C54.7 369 27.3 343 13.7 330L0 317Z" fill="#163cbe"></path></svg>