<svg id="visual" viewBox="0 0 960 540" width="960" height="540" xmlns="http://www.w3.org/2000/svg" xmlns:xlink="http://www.w3.org/1999/xlink" version="1.1"><rect x="0" y="0" width="960" height="540" fill="#002233"></rect><path d="M0 430L16 429.7C32 429.3 64 428.7 96 414.3C128 400 160 372 192 376.3C224 380.7 256 417.3 288 425.7C320 434 352 414 384 399.5C416 385 448 376 480 382.3C512 388.7 544 410.3 576 422.2C608 434 640 436 672 434.2C704 432.3 736 426.7 768 414.7C800 402.7 832 384.3 864 381.5C896 378.7 928 391.3 944 397.7L960 404L960 541L944 541C928 541 896 541 864 541C832 541 800 541 768 541C736 541 704 541 672 541C640 541 608 541 576 541C544 541 512 541 480 541C448 541 416 541 384 541C352 541 320 541 288 541C256 541 224 541 192 541C160 541 128 541 96 541C64 541 32 541 16 541L0 541Z" fill="#0066FF" stroke-linecap="round" stroke-linejoin="miter"></path></svg>