<svg id="visual" viewBox="0 0 960 540" width="960" height="540" xmlns="http://www.w3.org/2000/svg" xmlns:xlink="http://www.w3.org/1999/xlink" version="1.1"><path d="M0 66L14.5 66C29 66 58 66 87.2 63.3C116.3 60.7 145.7 55.3 174.8 54.3C204 53.3 233 56.7 262 62.8C291 69 320 78 349 77.2C378 76.3 407 65.7 436.2 65.7C465.3 65.7 494.7 76.3 523.8 80.8C553 85.3 582 83.7 611 79.2C640 74.7 669 67.3 698 65.5C727 63.7 756 67.3 785.2 63.8C814.3 60.3 843.7 49.7 872.8 49.7C902 49.7 931 60.3 945.5 65.7L960 71L960 0L945.5 0C931 0 902 0 872.8 0C843.7 0 814.3 0 785.2 0C756 0 727 0 698 0C669 0 640 0 611 0C582 0 553 0 523.8 0C494.7 0 465.3 0 436.2 0C407 0 378 0 349 0C320 0 291 0 262 0C233 0 204 0 174.8 0C145.7 0 116.3 0 87.2 0C58 0 29 0 14.5 0L0 0Z" fill="#505cdc"></path><path d="M0 179L14.5 172.7C29 166.3 58 153.7 87.2 152.8C116.3 152 145.7 163 174.8 161.3C204 159.7 233 145.3 262 146.2C291 147 320 163 349 167.5C378 172 407 165 436.2 167.7C465.3 170.3 494.7 182.7 523.8 181.7C553 180.7 582 166.3 611 154.7C640 143 669 134 698 135.8C727 137.7 756 150.3 785.2 152.2C814.3 154 843.7 145 872.8 139.7C902 134.3 931 132.7 945.5 131.8L960 131L960 69L945.5 63.7C931 58.3 902 47.7 872.8 47.7C843.7 47.7 814.3 58.3 785.2 61.8C756 65.3 727 61.7 698 63.5C669 65.3 640 72.7 611 77.2C582 81.7 553 83.3 523.8 78.8C494.7 74.3 465.3 63.7 436.2 63.7C407 63.7 378 74.3 349 75.2C320 76 291 67 262 60.8C233 54.7 204 51.3 174.8 52.3C145.7 53.3 116.3 58.7 87.2 61.3C58 64 29 64 14.5 64L0 64Z" fill="#3442d1"></path><path d="M0 228L14.5 229.8C29 231.7 58 235.3 87.2 235.3C116.3 235.3 145.7 231.7 174.8 226.2C204 220.7 233 213.3 262 213.3C291 213.3 320 220.7 349 223.3C378 226 407 224 436.2 228.5C465.3 233 494.7 244 523.8 245.8C553 247.7 582 240.3 611 231.3C640 222.3 669 211.7 698 212.7C727 213.7 756 226.3 785.2 232.7C814.3 239 843.7 239 872.8 231.7C902 224.3 931 209.7 945.5 202.3L960 195L960 129L945.5 129.8C931 130.7 902 132.3 872.8 137.7C843.7 143 814.3 152 785.2 150.2C756 148.3 727 135.7 698 133.8C669 132 640 141 611 152.7C582 164.3 553 178.7 523.8 179.7C494.7 180.7 465.3 168.3 436.2 165.7C407 163 378 170 349 165.5C320 161 291 145 262 144.2C233 143.3 204 157.7 174.8 159.3C145.7 161 116.3 150 87.2 150.8C58 151.7 29 164.3 14.5 170.7L0 177Z" fill="#0825c5"></path><path d="M0 357L14.5 367.8C29 378.7 58 400.3 87.2 395.8C116.3 391.3 145.7 360.7 174.8 364.3C204 368 233 406 262 403.3C291 400.7 320 357.3 349 351.8C378 346.3 407 378.7 436.2 394C465.3 409.3 494.7 407.7 523.8 398.7C553 389.7 582 373.3 611 365.2C640 357 669 357 698 358C727 359 756 361 785.2 369.2C814.3 377.3 843.7 391.7 872.8 397C902 402.3 931 398.7 945.5 396.8L960 395L960 193L945.5 200.3C931 207.7 902 222.3 872.8 229.7C843.7 237 814.3 237 785.2 230.7C756 224.3 727 211.7 698 210.7C669 209.7 640 220.3 611 229.3C582 238.3 553 245.7 523.8 243.8C494.7 242 465.3 231 436.2 226.5C407 222 378 224 349 221.3C320 218.7 291 211.3 262 211.3C233 211.3 204 218.7 174.8 224.2C145.7 229.7 116.3 233.3 87.2 233.3C58 233.3 29 229.7 14.5 227.8L0 226Z" fill="#0024ab"></path><path d="M0 541L14.5 541C29 541 58 541 87.2 541C116.3 541 145.7 541 174.8 541C204 541 233 541 262 541C291 541 320 541 349 541C378 541 407 541 436.2 541C465.3 541 494.7 541 523.8 541C553 541 582 541 611 541C640 541 669 541 698 541C727 541 756 541 785.2 541C814.3 541 843.7 541 872.8 541C902 541 931 541 945.5 541L960 541L960 393L945.5 394.8C931 396.7 902 400.3 872.8 395C843.7 389.7 814.3 375.3 785.2 367.2C756 359 727 357 698 356C669 355 640 355 611 363.2C582 371.3 553 387.7 523.8 396.7C494.7 405.7 465.3 407.3 436.2 392C407 376.7 378 344.3 349 349.8C320 355.3 291 398.7 262 401.3C233 404 204 366 174.8 362.3C145.7 358.7 116.3 389.3 87.2 393.8C58 398.3 29 376.7 14.5 365.8L0 355Z" fill="#002192"></path></svg>